<svg viewBox="0 0 23.5277 51.3053" xmlns="http://www.w3.org/2000/svg" xmlns:xlink="http://www.w3.org/1999/xlink" width="23.527710" height="51.305298" fill="none" customFrame="#000000">
	<defs>
		<g id="pixso_custom_effect_1">
			<effect x="0.000000" y="4.000000" visibility="visible" fill="rgb(0,0,0)" fill-opacity="0.25" effectType="dropShadow" showShadowBehind="1" stdDeviation="4" radius="0" />
		</g>
		<filter id="filter_1" width="23.527710" height="51.305298" x="0.000000" y="0.000000" filterUnits="userSpaceOnUse" customEffect="url(#pixso_custom_effect_1)" color-interpolation-filters="sRGB">
			<feFlood flood-opacity="0" result="BackgroundImageFix" />
			<feColorMatrix result="hardAlpha" in="SourceAlpha" type="matrix" values="0 0 0 0 0 0 0 0 0 0 0 0 0 0 0 0 0 0 127 0 " />
			<feOffset dx="0.000000" dy="4.000000" in="hardAlpha" />
			<feGaussianBlur stdDeviation="1.33333337" />
			<feColorMatrix type="matrix" values="0 0 0 0 0 0 0 0 0 0 0 0 0 0 0 0 0 0 0.25 0 " />
			<feBlend result="effect_dropShadow_1" in2="BackgroundImageFix" mode="normal" />
			<feBlend result="shape" in="SourceGraphic" in2="effect_dropShadow_1" mode="normal" />
		</filter>
	</defs>
	<g id="np_surfboard_1123390_000000" filter="url(#filter_1)">
		<path id="Shape" d="M11.7636 0.125L11.7641 0.125C13.9818 0.12614 19.4027 7.18294 19.4027 20.2637C19.4027 33.4806 14.6596 42.4407 14.4583 42.8157L14.2621 43.1803L9.26562 43.1803L9.06944 42.8157C8.86812 42.4406 4.125 33.4806 4.125 20.2637C4.125 7.1834 9.5462 0.12614 11.7636 0.125ZM11.0697 1.9688L11.0697 1.96874L11.0698 1.96868L11.0697 1.9688ZM11.0697 1.9688L11.0697 23.7363L12.4586 23.7363L12.4586 1.96874C14.2363 3.55554 18.0141 9.3283 18.0141 20.2638C18.0141 23.9131 17.6304 27.243 17.0835 30.151C16.2797 29.0069 14.8023 27.4496 12.1098 25.9114C5.56308 22.17 5.64264 17.0327 5.64798 16.8158L5.64624 16.8158C6.32854 8.09918 9.4898 3.38052 11.0697 1.9688ZM5.53696 21.3789C6.53006 23.2242 8.29218 25.33 11.4203 27.1181C15.8821 29.6684 16.6323 32.191 16.6461 32.2363C16.3058 33.7224 15.9326 35.0714 15.5593 36.2589C14.9742 35.2224 13.943 33.9481 12.1218 32.863C6.63736 29.5974 5.77114 24.8595 5.6498 23.9048C5.59078 23.0819 5.55604 22.2382 5.53696 21.3789ZM5.53696 21.3789L5.53678 21.3785L5.53696 21.3788L5.53696 21.3789ZM12.4585 41.7918L13.4186 41.7918L13.4184 41.7915C13.6944 41.2221 14.2534 40.0033 14.8889 38.2498C14.7534 37.6717 14.1042 35.6596 11.4097 34.0554C8.96016 32.5955 7.34904 30.8577 6.28482 29.2292C7.42198 35.891 9.48452 40.5037 10.1095 41.7918L11.0696 41.7918L11.0696 36.9305L12.4585 36.9305L12.4585 41.7918Z" fill="rgb(255,255,255)" fill-rule="evenodd" />
		<path id="Shape" d="M11.7636 0.125L11.7641 0.125C13.9818 0.12614 19.4027 7.18294 19.4027 20.2637C19.4027 33.4806 14.6596 42.4407 14.4583 42.8157L14.2621 43.1803L9.26562 43.1803L9.06944 42.8157C8.86812 42.4406 4.125 33.4806 4.125 20.2637C4.125 7.1834 9.5462 0.12614 11.7636 0.125ZM11.0697 1.9688L11.0697 1.96874L11.0698 1.96868L11.0697 1.9688ZM11.0697 1.9688L11.0697 23.7363L12.4586 23.7363L12.4586 1.96874C14.2363 3.55554 18.0141 9.3283 18.0141 20.2638C18.0141 23.9131 17.6304 27.243 17.0835 30.151C16.2797 29.0069 14.8023 27.4496 12.1098 25.9114C5.56308 22.17 5.64264 17.0327 5.64798 16.8158L5.64624 16.8158C6.32854 8.09918 9.4898 3.38052 11.0697 1.9688ZM5.53696 21.3789C6.53006 23.2242 8.29218 25.33 11.4203 27.1181C15.8821 29.6684 16.6323 32.191 16.6461 32.2363C16.3058 33.7224 15.9326 35.0714 15.5593 36.2589C14.9742 35.2224 13.943 33.9481 12.1218 32.863C6.63736 29.5974 5.77114 24.8595 5.6498 23.9048C5.59078 23.0819 5.55604 22.2382 5.53696 21.3789ZM5.53696 21.3789L5.53678 21.3785L5.53696 21.3788L5.53696 21.3789ZM12.4585 41.7918L13.4186 41.7918L13.4184 41.7915C13.6944 41.2221 14.2534 40.0033 14.8889 38.2498C14.7534 37.6717 14.1042 35.6596 11.4097 34.0554C8.96016 32.5955 7.34904 30.8577 6.28482 29.2292C7.42198 35.891 9.48452 40.5037 10.1095 41.7918L11.0696 41.7918L11.0696 36.9305L12.4585 36.9305L12.4585 41.7918Z" fill-rule="evenodd" stroke="rgb(0,0,0)" stroke-width="0.250000" />
	</g>
</svg>
