<svg viewBox="0 0 46.5188 47.3108" xmlns="http://www.w3.org/2000/svg" xmlns:xlink="http://www.w3.org/1999/xlink" width="46.518768" height="47.310791" fill="none" customFrame="#000000">
	<defs>
		<g id="pixso_custom_effect_0">
			<effect x="0.000000" y="4.000000" visibility="visible" fill="rgb(0,0,0)" fill-opacity="0.25" effectType="dropShadow" showShadowBehind="1" stdDeviation="4" radius="0" />
		</g>
		<filter id="filter_0" width="46.518768" height="47.310791" x="0.000000" y="0.000000" filterUnits="userSpaceOnUse" customEffect="url(#pixso_custom_effect_0)" color-interpolation-filters="sRGB">
			<feFlood flood-opacity="0" result="BackgroundImageFix" />
			<feColorMatrix result="hardAlpha" in="SourceAlpha" type="matrix" values="0 0 0 0 0 0 0 0 0 0 0 0 0 0 0 0 0 0 127 0 " />
			<feOffset dx="0.000000" dy="4.000000" in="hardAlpha" />
			<feGaussianBlur stdDeviation="1.33333337" />
			<feColorMatrix type="matrix" values="0 0 0 0 0 0 0 0 0 0 0 0 0 0 0 0 0 0 0.25 0 " />
			<feBlend result="effect_dropShadow_1" in2="BackgroundImageFix" mode="normal" />
			<feBlend result="shape" in="SourceGraphic" in2="effect_dropShadow_1" mode="normal" />
		</filter>
	</defs>
	<g id="Camp" filter="url(#filter_0)">
		<path id="Shape" d="M42.037 32.1881L33.7502 32.1881C33.4851 32.1881 33.2688 32.4061 33.2688 32.6734C33.2688 32.9407 33.4851 33.1587 33.7502 33.1587L42.037 33.1587C42.3022 33.1587 42.5185 32.9407 42.5185 32.6734C42.5185 32.4061 42.3022 32.1881 42.037 32.1881Z" fill="rgb(255,255,255)" fill-rule="nonzero" />
		<path id="Shape" d="M33.7502 32.1881C33.4851 32.1881 33.2688 32.4061 33.2688 32.6734C33.2688 32.9407 33.4851 33.1587 33.7502 33.1587L42.037 33.1587C42.3022 33.1587 42.5185 32.9407 42.5185 32.6734C42.5185 32.4061 42.3022 32.1881 42.037 32.1881L33.7502 32.1881Z" fill-rule="nonzero" stroke="rgb(34,37,50)" stroke-width="0.000000" />
		<path id="Shape" d="M42.037 38.34L32.7459 38.34C32.4807 38.34 32.2644 38.558 32.2644 38.8253C32.2644 39.0926 32.4807 39.3106 32.7459 39.3106L42.037 39.3106C42.3022 39.3106 42.5185 39.0926 42.5185 38.8253C42.5185 38.558 42.3022 38.34 42.037 38.34Z" fill="rgb(255,255,255)" fill-rule="nonzero" />
		<path id="Shape" d="M32.7459 38.34C32.4807 38.34 32.2644 38.558 32.2644 38.8253C32.2644 39.0926 32.4807 39.3106 32.7459 39.3106L42.037 39.3106C42.3022 39.3106 42.5185 39.0926 42.5185 38.8253C42.5185 38.558 42.3022 38.34 42.037 38.34L32.7459 38.34Z" fill-rule="nonzero" stroke="rgb(34,37,50)" stroke-width="0.000000" />
		<path id="Shape" d="M4.48148 35.6916L11.9743 35.6916C12.2395 35.6916 12.4558 35.4736 12.4558 35.2063C12.4558 34.939 12.2395 34.7209 11.9743 34.7209L4.48148 34.7209C4.21629 34.7209 4 34.939 4 35.2063C4 35.4755 4.21629 35.6916 4.48148 35.6916Z" fill="rgb(255,255,255)" fill-rule="nonzero" />
		<path id="Shape" d="M11.9743 35.6916C12.2395 35.6916 12.4558 35.4736 12.4558 35.2063C12.4558 34.939 12.2395 34.7209 11.9743 34.7209L4.48148 34.7209C4.21629 34.7209 4 34.939 4 35.2063C4 35.4755 4.21629 35.6916 4.48148 35.6916L11.9743 35.6916Z" fill-rule="nonzero" stroke="rgb(34,37,50)" stroke-width="0.000000" />
		<path id="Shape" d="M7.74485 0.534572C7.93101 0.441692 8.15295 0.479612 8.29965 0.627472L8.29989 0.627712C8.44471 0.775551 8.48233 1.00115 8.38829 1.18883C8.08925 1.79169 7.93879 2.43433 7.93879 3.09975C7.93879 5.47703 9.86847 7.41261 12.2383 7.41261C12.9022 7.41261 13.5435 7.25907 14.1454 6.95953C14.3315 6.86663 14.5535 6.90455 14.7002 7.05243C14.8469 7.20027 14.8826 7.42587 14.7904 7.61165C13.8933 9.42591 12.0877 10.552 10.0791 10.552C7.17683 10.552 4.81647 8.18021 4.81647 5.26641C4.81647 3.24739 5.93929 1.43509 7.74485 0.534572ZM13.1276 8.30699C12.8342 8.35817 12.5389 8.38283 12.238 8.38283L12.2381 8.38299C9.33597 8.38299 6.97559 6.01315 6.97747 3.09935C6.97747 2.79603 7.00193 2.49837 7.05271 2.20453C6.24775 2.99885 5.77943 4.09081 5.77943 5.26619C5.77943 7.64537 7.70911 9.58095 10.0789 9.58095C11.2506 9.58095 12.3359 9.11271 13.1276 8.30699Z" fill="rgb(255,255,255)" fill-rule="evenodd" />
		<path id="Shape" d="M7.74485 0.534572C7.93101 0.441692 8.15295 0.479612 8.29965 0.627472L8.29989 0.627712C8.44471 0.775551 8.48233 1.00115 8.38829 1.18883C8.08925 1.79169 7.93879 2.43433 7.93879 3.09975C7.93879 5.47703 9.86847 7.41261 12.2383 7.41261C12.9022 7.41261 13.5435 7.25907 14.1454 6.95953C14.3315 6.86663 14.5535 6.90455 14.7002 7.05243C14.8469 7.20027 14.8826 7.42587 14.7904 7.61165C13.8933 9.42591 12.0877 10.552 10.0791 10.552C7.17683 10.552 4.81647 8.18021 4.81647 5.26641C4.81647 3.24739 5.93929 1.43509 7.74485 0.534572ZM13.1276 8.30699C12.8342 8.35817 12.5389 8.38283 12.238 8.38283L12.2381 8.38299C9.33597 8.38299 6.97559 6.01315 6.97747 3.09935C6.97747 2.79603 7.00193 2.49837 7.05271 2.20453C6.24775 2.99885 5.77943 4.09081 5.77943 5.26619C5.77943 7.64537 7.70911 9.58095 10.0789 9.58095C11.2506 9.58095 12.3359 9.11271 13.1276 8.30699Z" fill-rule="evenodd" stroke="rgb(34,37,50)" stroke-width="0.000000" />
		<path id="Shape" d="M42.039 24.4099L42.0371 24.4099C41.7719 24.4099 41.5575 24.6261 41.5556 24.8934L41.5443 27.4848L23.677 0.923497C23.4983 0.656197 23.0601 0.656197 22.8796 0.923497L5.02529 27.4659L5.03657 24.7151C5.03845 24.4478 4.82217 24.2279 4.55697 24.2279L4.55509 24.2279C4.28991 24.2279 4.07549 24.4441 4.07361 24.7114L4.05669 29.0527C4.05481 29.2669 4.19399 29.4546 4.39523 29.519C4.44225 29.5342 4.48927 29.5399 4.53817 29.5399C4.69427 29.5399 4.84473 29.4621 4.93689 29.3275L7.74677 25.1512L7.74677 29.0564C7.74677 29.3237 7.96307 29.5418 8.22825 29.5418L18.9523 29.5418C19.4996 31.3314 21.1603 32.6357 23.1201 32.6357C23.1332 32.6357 23.1445 32.6338 23.1577 32.6338C23.1633 32.6338 23.1709 32.6357 23.1765 32.6357C23.1953 32.6357 23.2141 32.63 23.2329 32.63C25.1419 32.5807 26.75 31.2953 27.286 29.5418L38.3303 29.5418C38.5955 29.5418 38.8117 29.3237 38.8117 29.0564L38.8117 25.1511L41.6216 29.3275C41.7401 29.5038 41.9583 29.5816 42.1595 29.519C42.3608 29.4564 42.5 29.2688 42.5 29.0564L42.5188 24.8971C42.5206 24.6279 42.3063 24.4118 42.0392 24.4099L42.039 24.4099ZM33.6278 28.5715L37.8483 28.5715L37.8507 23.7203L23.2801 2.06108L8.70955 23.7203L8.70955 28.5715L12.962 28.5715L12.962 25.1364C12.962 24.9847 13.0316 24.8426 13.1501 24.7516C13.2459 24.6759 22.8134 17.1268 22.8134 8.19016C22.8134 7.92286 23.0297 7.70484 23.2949 7.70484C23.5601 7.70484 23.7763 7.92286 23.7763 8.19016C23.7763 17.1268 33.3438 24.6757 33.4397 24.7516C33.5582 24.8445 33.6278 24.9866 33.6278 25.1364L33.6278 28.5715ZM23.4905 21.0889C23.308 20.8671 22.9318 20.8671 22.7494 21.0889C22.3413 21.5837 18.7603 25.9969 18.7603 28.257C18.7603 28.3632 18.7696 28.4675 18.7753 28.5717L13.9268 28.5717L13.9268 25.3717C14.555 24.8598 16.637 23.0854 18.7454 20.452C20.457 18.3155 22.4111 15.2955 23.2969 11.8527C24.1828 15.2973 26.1369 18.3152 27.8484 20.452C29.9568 23.0852 32.0388 24.8597 32.6671 25.3717L32.6671 28.5717L27.4628 28.5717C27.4703 28.4675 27.4778 28.3632 27.4778 28.257C27.4797 25.9973 23.8987 21.5839 23.4906 21.0889L23.4905 21.0889ZM25.6684 30.1297C25.6684 30.2738 25.6496 30.4103 25.627 30.5468C26.1781 29.9401 26.5166 29.1382 26.5128 28.2567C26.5128 26.8027 24.3236 23.7088 23.1161 22.1694C21.9106 23.7088 19.7194 26.8045 19.7194 28.2567C19.7194 29.2122 20.1163 30.0766 20.7501 30.6965C20.7087 30.5126 20.6805 30.325 20.6805 30.1297C20.6805 28.9012 22.4503 26.6926 22.8039 26.2623C22.9864 26.0405 23.3625 26.0405 23.545 26.2623C23.9005 26.6927 25.6684 28.9013 25.6684 30.1297ZM23.2328 31.6596C23.2064 31.6615 23.182 31.6634 23.1575 31.6634C22.3225 31.652 21.6454 30.9695 21.6454 30.1316C21.6454 29.58 22.4504 28.3098 23.1764 27.3524C23.9023 28.3098 24.7073 29.5799 24.7073 30.1316C24.7073 30.9563 24.0509 31.6293 23.2328 31.6596L23.2328 31.6596Z" fill="rgb(255,255,255)" fill-rule="evenodd" />
		<path id="Shape" d="M42.039 24.4099L42.0371 24.4099C41.7719 24.4099 41.5575 24.6261 41.5556 24.8934L41.5443 27.4848L23.677 0.923497C23.4983 0.656197 23.0601 0.656197 22.8796 0.923497L5.02529 27.4659L5.03657 24.7151C5.03845 24.4478 4.82217 24.2279 4.55697 24.2279L4.55509 24.2279C4.28991 24.2279 4.07549 24.4441 4.07361 24.7114L4.05669 29.0527C4.05481 29.2669 4.19399 29.4546 4.39523 29.519C4.44225 29.5342 4.48927 29.5399 4.53817 29.5399C4.69427 29.5399 4.84473 29.4621 4.93689 29.3275L7.74677 25.1512L7.74677 29.0564C7.74677 29.3237 7.96307 29.5418 8.22825 29.5418L18.9523 29.5418C19.4996 31.3314 21.1603 32.6357 23.1201 32.6357C23.1332 32.6357 23.1445 32.6338 23.1577 32.6338C23.1633 32.6338 23.1709 32.6357 23.1765 32.6357C23.1953 32.6357 23.2141 32.63 23.2329 32.63C25.1419 32.5807 26.75 31.2953 27.286 29.5418L38.3303 29.5418C38.5955 29.5418 38.8117 29.3237 38.8117 29.0564L38.8117 25.1511L41.6216 29.3275C41.7401 29.5038 41.9583 29.5816 42.1595 29.519C42.3608 29.4564 42.5 29.2688 42.5 29.0564L42.5188 24.8971C42.5206 24.6279 42.3063 24.4118 42.0392 24.4099L42.039 24.4099ZM33.6278 28.5715L37.8483 28.5715L37.8507 23.7203L23.2801 2.06108L8.70955 23.7203L8.70955 28.5715L12.962 28.5715L12.962 25.1364C12.962 24.9847 13.0316 24.8426 13.1501 24.7516C13.2459 24.6759 22.8134 17.1268 22.8134 8.19016C22.8134 7.92286 23.0297 7.70484 23.2949 7.70484C23.5601 7.70484 23.7763 7.92286 23.7763 8.19016C23.7763 17.1268 33.3438 24.6757 33.4397 24.7516C33.5582 24.8445 33.6278 24.9866 33.6278 25.1364L33.6278 28.5715ZM23.4905 21.0889C23.308 20.8671 22.9318 20.8671 22.7494 21.0889C22.3413 21.5837 18.7603 25.9969 18.7603 28.257C18.7603 28.3632 18.7696 28.4675 18.7753 28.5717L13.9268 28.5717L13.9268 25.3717C14.555 24.8598 16.637 23.0854 18.7454 20.452C20.457 18.3155 22.4111 15.2955 23.2969 11.8527C24.1828 15.2973 26.1369 18.3152 27.8484 20.452C29.9568 23.0852 32.0388 24.8597 32.6671 25.3717L32.6671 28.5717L27.4628 28.5717C27.4703 28.4675 27.4778 28.3632 27.4778 28.257C27.4797 25.9973 23.8987 21.5839 23.4906 21.0889L23.4905 21.0889ZM25.6684 30.1297C25.6684 30.2738 25.6496 30.4103 25.627 30.5468C26.1781 29.9401 26.5166 29.1382 26.5128 28.2567C26.5128 26.8027 24.3236 23.7088 23.1161 22.1694C21.9106 23.7088 19.7194 26.8045 19.7194 28.2567C19.7194 29.2122 20.1163 30.0766 20.7501 30.6965C20.7087 30.5126 20.6805 30.325 20.6805 30.1297C20.6805 28.9012 22.4503 26.6926 22.8039 26.2623C22.9864 26.0405 23.3625 26.0405 23.545 26.2623C23.9005 26.6927 25.6684 28.9013 25.6684 30.1297ZM23.2328 31.6596C23.2064 31.6615 23.182 31.6634 23.1575 31.6634C22.3225 31.652 21.6454 30.9695 21.6454 30.1316C21.6454 29.58 22.4504 28.3098 23.1764 27.3524C23.9023 28.3098 24.7073 29.5799 24.7073 30.1316C24.7073 30.9563 24.0509 31.6293 23.2328 31.6596L23.2328 31.6596Z" fill-rule="evenodd" stroke="rgb(34,37,50)" stroke-width="0.000000" />
		<path id="Shape" d="M30.596 34.433C30.6393 34.5543 30.6299 34.6908 30.5734 34.8064L30.5738 34.8064C30.5154 34.924 30.4158 35.0131 30.2916 35.0548L28.5105 35.6482L30.2221 36.1354C30.3462 36.1714 30.4515 36.2548 30.5136 36.3686C30.5756 36.4823 30.5888 36.615 30.5531 36.7401L29.9381 38.8293C29.876 39.0397 29.6861 39.1762 29.4773 39.1762C29.434 39.1762 29.3889 39.1686 29.3456 39.1572L23.2178 37.4112L17.5941 39.2861C17.5452 39.3032 17.4944 39.3108 17.4437 39.3108C17.2443 39.3108 17.0581 39.1857 16.9923 38.9847L16.2832 36.924C16.2399 36.8027 16.2493 36.6662 16.3058 36.5506C16.3622 36.433 16.4637 36.3458 16.586 36.3041L18.0718 35.8093L16.2869 35.3012C16.1628 35.2652 16.0575 35.1818 15.9954 35.0681C15.9334 34.9543 15.9202 34.8216 15.9559 34.6965L16.5709 32.6074C16.6462 32.3514 16.9095 32.2055 17.1634 32.2775L23.3644 34.0443L29.2813 32.0708C29.5315 31.9874 29.8004 32.122 29.8869 32.3723L30.596 34.433ZM17.3498 37.0718L17.7429 38.215L29.5262 34.287L29.1331 33.1438L17.3498 37.0718ZM17.3591 33.341L17.0168 34.4993L19.7026 35.2652L21.7338 34.5884L17.3591 33.341ZM29.4901 36.9354L29.1478 38.0937L24.8483 36.8671L26.8796 36.1904L29.4901 36.9354Z" fill="rgb(255,255,255)" fill-rule="evenodd" />
		<path id="Shape" d="M30.596 34.433C30.6393 34.5543 30.6299 34.6908 30.5734 34.8064L30.5738 34.8064C30.5154 34.924 30.4158 35.0131 30.2916 35.0548L28.5105 35.6482L30.2221 36.1354C30.3462 36.1714 30.4515 36.2548 30.5136 36.3686C30.5756 36.4823 30.5888 36.615 30.5531 36.7401L29.9381 38.8293C29.876 39.0397 29.6861 39.1762 29.4773 39.1762C29.434 39.1762 29.3889 39.1686 29.3456 39.1572L23.2178 37.4112L17.5941 39.2861C17.5452 39.3032 17.4944 39.3108 17.4437 39.3108C17.2443 39.3108 17.0581 39.1857 16.9923 38.9847L16.2832 36.924C16.2399 36.8027 16.2493 36.6662 16.3058 36.5506C16.3622 36.433 16.4637 36.3458 16.586 36.3041L18.0718 35.8093L16.2869 35.3012C16.1628 35.2652 16.0575 35.1818 15.9954 35.0681C15.9334 34.9543 15.9202 34.8216 15.9559 34.6965L16.5709 32.6074C16.6462 32.3514 16.9095 32.2055 17.1634 32.2775L23.3644 34.0443L29.2813 32.0708C29.5315 31.9874 29.8004 32.122 29.8869 32.3723L30.596 34.433ZM17.3498 37.0718L17.7429 38.215L29.5262 34.287L29.1331 33.1438L17.3498 37.0718ZM17.3591 33.341L17.0168 34.4993L19.7026 35.2652L21.7338 34.5884L17.3591 33.341ZM29.4901 36.9354L29.1478 38.0937L24.8483 36.8671L26.8796 36.1904L29.4901 36.9354Z" fill-rule="evenodd" stroke="rgb(34,37,50)" stroke-width="0.000000" />
	</g>
</svg>
