<svg viewBox="0 0 204.238 235.121" xmlns="http://www.w3.org/2000/svg" xmlns:xlink="http://www.w3.org/1999/xlink" width="204.237701" height="235.121338" fill="none" customFrame="#000000">
	<path id="Path 3" d="M171.5 0.344055C162.931 23.7255 182.999 31.9302 199.06 47.2121C203.82 51.7404 204.274 59.2217 199.264 63.747C188.492 73.4785 147.649 59.3214 150.24 72.1498C152.915 85.399 187.446 103.936 189.003 105.204C202.67 116.336 207.121 144.579 199.594 160.063C194.238 171.081 158.728 167.367 147.558 163.698C74.4094 139.671 107.371 142.536 25.2021 135.074C18.9119 134.503 12.3203 134.211 6.27926 136.055C0.0568252 137.954 0.25477 145.743 2.34255 149.955C9.26115 163.911 40.2343 187.582 31.8992 205.927C29.3417 211.556 23.3484 215.112 20.6498 220.674C18.5359 225.032 18.7703 230.176 17.8306 234.927" fill="rgb(215.985,215.985,215.985)" fill-opacity="0" fill-rule="evenodd" />
	<path id="Path 3" d="M171.5 0.344055C162.931 23.7255 182.999 31.9302 199.06 47.2121C203.82 51.7404 204.274 59.2217 199.264 63.747C188.492 73.4785 147.649 59.3214 150.24 72.1498C152.915 85.399 187.446 103.936 189.003 105.204C202.67 116.336 207.121 144.579 199.594 160.063C194.238 171.081 158.728 167.367 147.558 163.698C74.4094 139.671 107.371 142.536 25.2021 135.074C18.9119 134.503 12.3203 134.211 6.27926 136.055C0.0568252 137.954 0.25477 145.743 2.34255 149.955C9.26115 163.911 40.2343 187.582 31.8992 205.927C29.3417 211.556 23.3484 215.112 20.6498 220.674C18.5359 225.032 18.7703 230.176 17.8306 234.927" fill-rule="evenodd" stroke="rgb(255,255,255)" stroke-width="2.000000" />
</svg>
