<svg viewBox="0 0 764.414 503.44" xmlns="http://www.w3.org/2000/svg" xmlns:xlink="http://www.w3.org/1999/xlink" width="764.414429" height="503.439697" fill="none" customFrame="#000000">
	<path id="Вектор 1" d="M1.00343 1.00342C1.00343 1.00342 23.2614 38.189 35.3112 50.6632C42.3153 57.9102 49.9128 59.5736 56.9172 68.8401C62.7341 76.5623 60.4787 86.661 67.4233 93.6106C79.2946 105.55 99.4168 105.729 108.795 121.351C119.242 138.756 107.371 151.884 138.117 150.279C139.72 185.09 146.309 216.632 145.952 251.441C163.106 258.272 190.825 250.134 208.81 246.51C226.677 270.627 249.766 253.876 270.185 267.005C279.089 272.707 277.249 286.964 282.65 291.953C293.75 302.17 301.94 295.755 315.712 299.319C325.921 301.933 333.815 309.417 343.549 312.15C352.75 314.704 367.886 308.705 374.712 316.843C382.903 326.584 369.192 344.405 381.538 352.246C391.806 358.78 406.526 343.217 416.499 345.474C428.133 348.147 461.49 378.621 469.682 388.659C479.001 400.123 488.38 421.509 493.662 436.24C501.912 459.287 500.784 470.574 517.819 487.445C528.681 498.196 518.353 498.969 536.041 502.117C547.615 504.196 562.929 495.82 574.623 494.514C598.96 491.84 623.534 496.474 647.513 491.9C669.832 487.623 691.14 480.613 714.051 477.346C733.877 474.495 745.843 476.693 763.411 467.248" stroke="rgb(255,255,255)" stroke-linecap="round" stroke-linejoin="round" stroke-width="2.000000" />
</svg>
