<svg viewBox="0 0 10.7867 12.837" xmlns="http://www.w3.org/2000/svg" xmlns:xlink="http://www.w3.org/1999/xlink" width="10.786682" height="12.837036" fill="none" customFrame="#000000">
	<path id="Shape" d="M5.39282 0C6.61806 0 7.80766 0.41372 8.74562 1.16506L8.74562 1.16502C9.97086 2.14588 10.6915 3.54052 10.7787 5.09108C10.8621 6.62194 10.29 8.1197 9.20968 9.20006L5.6284 12.7345C5.48968 12.872 5.24906 12.8708 5.11034 12.7333L1.57964 9.2026C0.49684 8.1198 -0.0764998 6.6208 0.00822024 5.09112C0.0941402 3.54062 0.81602 2.14598 2.04002 1.16506C2.97674 0.41372 4.1676 0 5.39282 0ZM2.98658 5.38962C2.98658 6.71672 4.06568 7.79586 5.39282 7.79586C6.71992 7.79586 7.80028 6.71676 7.79904 5.38962C7.79904 4.06252 6.71994 2.98338 5.39282 2.98338C4.06572 2.98338 2.98658 4.06248 2.98658 5.38962Z" fill="rgb(255,255,255)" fill-rule="evenodd" />
</svg>
