<svg viewBox="0 0 24 33" xmlns="http://www.w3.org/2000/svg" xmlns:xlink="http://www.w3.org/1999/xlink" width="24.000000" height="33.000000" fill="none" customFrame="#000000">
	<path id="Oval 2" d="M21 24C27.6274 24 33 18.6274 33 12C33 5.37258 27.6274 0 21 0C14.3726 0 0 12 0 12C0 12 14.3726 24 21 24Z" fill="rgb(74,246,205)" fill-rule="evenodd" transform="matrix(-1.83697e-16,1,-1,-1.83697e-16,24,0)" />
	<path id="Oval 2" d="M33 12C33 5.37258 27.6274 0 21 0C14.3726 0 0 12 0 12C0 12 14.3726 24 21 24C27.6274 24 33 18.6274 33 12Z" fill-rule="evenodd" stroke="rgb(151,151,151)" stroke-opacity="0" stroke-width="0.000000" transform="matrix(-1.83697e-16,1,-1,-1.83697e-16,24,0)" />
</svg>
