<svg viewBox="0 0 24 24" xmlns="http://www.w3.org/2000/svg" xmlns:xlink="http://www.w3.org/1999/xlink" width="24.000000" height="24.000000" fill="none" customFrame="#000000">
	<g id="Search">
		<path id="Shape" d="M23.3304 23.3304C24.2232 22.4376 24.2232 20.9911 23.3304 20.0983L18.6139 15.3817C18.279 15.0469 18.192 14.4375 18.4174 14.0223C18.4174 14.0223 18.4018 14.0848 18.567 13.721C19.1206 12.5 19.4286 11.1429 19.4286 9.7143C19.4286 4.34824 15.0804 0 9.7143 -0C4.34824 0 0 4.34824 -0 9.7143C0 15.0804 4.34824 19.4286 9.7143 19.4286C11.1384 19.4286 12.4911 19.1228 13.7098 18.5715C14.0782 18.4063 14.0201 18.4197 14.0201 18.4197C14.442 18.1942 15.0469 18.279 15.3817 18.6139L20.0982 23.3304C20.991 24.2232 22.4375 24.2232 23.3304 23.3304ZM15.1429 9.71432C15.1429 12.7121 12.7121 15.1429 9.71434 15.1429C6.71656 15.1429 4.28576 12.7121 4.28576 9.71432C4.28576 6.71654 6.71656 4.28574 9.71434 4.28574C12.7121 4.28574 15.1429 6.71654 15.1429 9.71432Z" fill="rgb(255,255,255)" fill-rule="evenodd" />
	</g>
</svg>
