<svg viewBox="0 0 59.4501 46.4176" xmlns="http://www.w3.org/2000/svg" xmlns:xlink="http://www.w3.org/1999/xlink" width="59.450134" height="46.417603" fill="none" customFrame="#000000">
	<g id="Surf">
		<path id="Shape" d="M58.8866 42.9858C58.8772 43.0143 58.8655 43.0428 58.8514 43.0689L58.8518 43.0685C58.8377 43.097 58.8236 43.1231 58.7954 43.1421C58.7789 43.1682 58.7625 43.1895 58.746 43.2132C58.7272 43.237 58.706 43.2631 58.6849 43.2868C58.666 43.3058 58.6472 43.3248 58.6261 43.3438C58.6025 43.3675 58.5767 43.3889 58.5508 43.4079C58.5296 43.4221 58.5038 43.4387 58.4802 43.4529C58.452 43.4672 58.4262 43.4838 58.3956 43.498C58.3674 43.5123 58.3368 43.5218 58.3062 43.5336C58.2874 43.5408 58.2709 43.5503 58.2498 43.555C58.2404 43.5574 58.2333 43.555 58.2239 43.5574C58.151 43.5764 58.0758 43.5882 57.9981 43.5882C57.8923 43.5882 57.8547 43.6048 57.8547 43.6048C57.81 43.657 57.7277 43.9252 57.6783 44.0842C57.4949 44.6776 57.1116 45.9116 55.5618 45.9116C54.233 45.9116 53.5745 45.0192 53.0924 44.369C52.6409 43.7543 52.4692 43.5882 52.1306 43.5882C51.7919 43.5882 51.6226 43.7543 51.1687 44.3666C50.6866 45.0168 50.0281 45.9092 48.697 45.9092C47.3682 45.9092 46.7098 45.0168 46.2277 44.3666C45.7761 43.7543 45.6044 43.5882 45.2658 43.5882C44.9295 43.5882 44.7578 43.7543 44.3039 44.369C43.8242 45.0192 43.1633 45.9116 41.8346 45.9116C40.5035 45.9116 39.845 45.0192 39.3629 44.369C38.9114 43.7567 38.7397 43.5906 38.401 43.5906C38.0624 43.5906 37.893 43.7567 37.4391 44.369C36.9594 45.0192 36.3009 45.9116 34.9698 45.9116C33.641 45.9116 32.9826 45.0192 32.5005 44.369C32.0489 43.7567 31.8772 43.5906 31.5386 43.5906C31.2023 43.5906 31.0306 43.7568 30.5767 44.3714C30.097 45.0217 29.4362 45.9141 28.1074 45.9141C26.7786 45.9141 26.1202 45.0217 25.6381 44.3714C25.1865 43.7592 25.0148 43.593 24.6762 43.593C24.3399 43.593 24.1682 43.7592 23.7143 44.3738C23.2345 45.0241 22.5737 45.9165 21.245 45.9165C20.824 45.9165 20.4407 45.7432 20.1702 45.43C19.5141 44.6753 19.6458 43.389 19.9162 41.3527L19.9208 41.3176L19.9209 41.3173C20.0174 40.5806 20.1647 39.4572 20.1161 38.9107C18.3594 39.257 15.8665 42.81 14.5731 45.3945C14.4132 45.7173 14.0863 45.9166 13.7336 45.9166C13.7148 45.9166 13.6959 45.9166 13.6771 45.9142C13.3032 45.8929 12.9763 45.6484 12.8493 45.2925C12.633 44.6892 10.7845 39.3188 12.7059 36.3475C13.4255 35.2368 14.5919 34.5984 16.083 34.5011C17.3787 34.4156 17.9714 34.0644 18.0843 33.7867C18.1595 33.6016 18.0396 33.286 17.7762 32.9846C17.0754 32.18 15.5091 31.5345 13.7265 32.0234C11.2547 32.6978 8.48441 36.0416 7.55077 39.4781C7.22387 40.6861 6.87107 42.9217 8.20687 44.3053C8.56905 44.6826 8.55963 45.283 8.18807 45.6485C7.81413 46.014 7.22153 46.0068 6.85701 45.6295C5.38247 44.1036 4.98503 41.7399 5.73523 38.9774C6.70633 35.3985 9.77781 31.1338 13.2348 30.1916C15.81 29.4892 18.0793 30.4574 19.1894 31.7319C19.9584 32.6123 20.1889 33.6257 19.8244 34.5133C19.5069 35.2847 18.6226 36.2387 16.2051 36.3977C15.3044 36.4571 14.6765 36.7822 14.2837 37.3873C13.4912 38.6119 13.6746 40.7834 14.0344 42.5159C15.4456 40.2304 17.9219 36.9103 20.4853 36.991C20.8992 37.0052 21.2731 37.1856 21.5365 37.5012C21.7999 37.8145 21.9293 38.2203 21.9763 38.7234C23.7072 37.5677 26.2332 36.4237 31.2188 35.9159C25.8144 13.821 35.974 1.38284 36.435 0.83464C36.4444 0.82514 36.4538 0.8204 36.4608 0.8109C36.4891 0.78004 36.5173 0.75394 36.5479 0.72784C36.5667 0.70884 36.5855 0.69224 36.6067 0.678C36.6419 0.65426 36.6772 0.63528 36.7148 0.61392C36.7337 0.60204 36.7525 0.59018 36.7736 0.5807C36.8183 0.5617 36.863 0.54746 36.91 0.5356C36.9265 0.53322 36.9429 0.5261 36.9594 0.52136C37.0229 0.50712 37.0888 0.5 37.157 0.5L37.2957 0.50474C37.5732 0.50474 37.8342 0.62578 38.013 0.83938C38.4739 1.38496 48.584 13.7596 43.2761 35.7475C57.1558 36.5685 58.8537 42.1575 58.9196 42.402C58.9219 42.4115 58.9219 42.4233 58.9243 42.4328C58.929 42.4637 58.9337 42.4945 58.9384 42.5254C58.9431 42.5586 58.9478 42.5918 58.9478 42.6251C58.9478 42.6346 58.9501 42.644 58.9501 42.6535C58.9501 42.6725 58.9478 42.6891 58.9454 42.7081C58.9431 42.7413 58.9407 42.7769 58.9337 42.8102C58.929 42.8386 58.9219 42.8671 58.9149 42.8956C58.9055 42.9265 58.8984 42.9573 58.8866 42.9858ZM38.0971 38.6712L40.5289 38.6712C45.8839 20.9981 40.8463 9.08418 38.0971 4.35428L38.0971 38.6712ZM36.2158 4.60338L36.2158 38.6712L33.9228 38.6712C28.6714 21.342 33.4454 9.50388 36.2158 4.60338ZM55.7165 44.0086C55.7612 43.9564 55.8435 43.6882 55.8929 43.5292L55.8921 43.5293C56.0027 43.1733 56.1908 42.5895 56.6541 42.1789C55.6125 40.8499 52.3272 38.1206 42.7909 37.6246C42.5839 38.377 42.3605 39.1388 42.1159 39.9124C41.9912 40.3064 41.6291 40.5745 41.2199 40.5745L33.229 40.5745C32.8198 40.5745 32.4576 40.3064 32.333 39.9124C32.1072 39.191 31.9003 38.4813 31.7051 37.7813C25.6586 38.3556 23.4951 39.8863 21.8418 41.1773C21.823 41.3197 21.8066 41.4598 21.7854 41.6116C21.6937 42.3046 21.5526 43.3726 21.5808 43.9422C21.7525 43.8401 21.9265 43.6313 22.2087 43.2468C22.6908 42.5966 23.3493 41.7042 24.6804 41.7042C26.0092 41.7042 26.6676 42.5966 27.1497 43.2468C27.6013 43.8591 27.773 44.0252 28.1116 44.0252C28.4503 44.0252 28.6196 43.8591 29.0735 43.2468C29.5556 42.5966 30.2141 41.7042 31.5452 41.7042C32.8739 41.7042 33.5324 42.5966 34.0145 43.2468C34.4684 43.8591 34.6401 44.0252 34.9764 44.0252C35.315 44.0252 35.4844 43.8591 35.9383 43.2468C36.418 42.5966 37.0765 41.7042 38.4076 41.7042C39.7364 41.7042 40.3948 42.5966 40.8769 43.2468C41.3308 43.8615 41.5025 44.0276 41.8412 44.0276C42.1798 44.0276 42.3492 43.8615 42.803 43.2492C43.2851 42.599 43.9437 41.7066 45.2747 41.7066C46.6035 41.7066 47.2619 42.599 47.744 43.2492C48.1956 43.8615 48.3673 44.0276 48.7059 44.0276C49.0446 44.0276 49.2163 43.8615 49.6702 43.2468C50.1499 42.5966 50.8108 41.7042 52.1395 41.7042C53.4706 41.7042 54.1291 42.5966 54.6112 43.2468C55.0651 43.8591 55.2367 44.0252 55.573 44.0252C55.6789 44.0252 55.7165 44.0086 55.7165 44.0086Z" fill="rgb(255,255,255)" fill-rule="evenodd" />
		<path id="Shape" d="M58.8866 42.9858C58.8772 43.0143 58.8655 43.0428 58.8514 43.0689L58.8518 43.0685C58.8377 43.097 58.8236 43.1231 58.7954 43.1421C58.7789 43.1682 58.7625 43.1895 58.746 43.2132C58.7272 43.237 58.706 43.2631 58.6849 43.2868C58.666 43.3058 58.6472 43.3248 58.6261 43.3438C58.6025 43.3675 58.5767 43.3889 58.5508 43.4079C58.5296 43.4221 58.5038 43.4387 58.4802 43.4529C58.452 43.4672 58.4262 43.4838 58.3956 43.498C58.3674 43.5123 58.3368 43.5218 58.3062 43.5336C58.2874 43.5408 58.2709 43.5503 58.2498 43.555C58.2404 43.5574 58.2333 43.555 58.2239 43.5574C58.151 43.5764 58.0758 43.5882 57.9981 43.5882C57.8923 43.5882 57.8547 43.6048 57.8547 43.6048C57.81 43.657 57.7277 43.9252 57.6783 44.0842C57.4949 44.6776 57.1116 45.9116 55.5618 45.9116C54.233 45.9116 53.5745 45.0192 53.0924 44.369C52.6409 43.7543 52.4692 43.5882 52.1306 43.5882C51.7919 43.5882 51.6226 43.7543 51.1687 44.3666C50.6866 45.0168 50.0281 45.9092 48.697 45.9092C47.3682 45.9092 46.7098 45.0168 46.2277 44.3666C45.7761 43.7543 45.6044 43.5882 45.2658 43.5882C44.9295 43.5882 44.7578 43.7543 44.3039 44.369C43.8242 45.0192 43.1633 45.9116 41.8346 45.9116C40.5035 45.9116 39.845 45.0192 39.3629 44.369C38.9114 43.7567 38.7397 43.5906 38.401 43.5906C38.0624 43.5906 37.893 43.7567 37.4391 44.369C36.9594 45.0192 36.3009 45.9116 34.9698 45.9116C33.641 45.9116 32.9826 45.0192 32.5005 44.369C32.0489 43.7567 31.8772 43.5906 31.5386 43.5906C31.2023 43.5906 31.0306 43.7568 30.5767 44.3714C30.097 45.0217 29.4362 45.9141 28.1074 45.9141C26.7786 45.9141 26.1202 45.0217 25.6381 44.3714C25.1865 43.7592 25.0148 43.593 24.6762 43.593C24.3399 43.593 24.1682 43.7592 23.7143 44.3738C23.2345 45.0241 22.5737 45.9165 21.245 45.9165C20.824 45.9165 20.4407 45.7432 20.1702 45.43C19.5141 44.6753 19.6458 43.389 19.9162 41.3527L19.9208 41.3176L19.9209 41.3173C20.0174 40.5806 20.1647 39.4572 20.1161 38.9107C18.3594 39.257 15.8665 42.81 14.5731 45.3945C14.4132 45.7173 14.0863 45.9166 13.7336 45.9166C13.7148 45.9166 13.6959 45.9166 13.6771 45.9142C13.3032 45.8929 12.9763 45.6484 12.8493 45.2925C12.633 44.6892 10.7845 39.3188 12.7059 36.3475C13.4255 35.2368 14.5919 34.5984 16.083 34.5011C17.3787 34.4156 17.9714 34.0644 18.0843 33.7867C18.1595 33.6016 18.0396 33.286 17.7762 32.9846C17.0754 32.18 15.5091 31.5345 13.7265 32.0234C11.2547 32.6978 8.48441 36.0416 7.55077 39.4781C7.22387 40.6861 6.87107 42.9217 8.20687 44.3053C8.56905 44.6826 8.55963 45.283 8.18807 45.6485C7.81413 46.014 7.22153 46.0068 6.85701 45.6295C5.38247 44.1036 4.98503 41.7399 5.73523 38.9774C6.70633 35.3985 9.77781 31.1338 13.2348 30.1916C15.81 29.4892 18.0793 30.4574 19.1894 31.7319C19.9584 32.6123 20.1889 33.6257 19.8244 34.5133C19.5069 35.2847 18.6226 36.2387 16.2051 36.3977C15.3044 36.4571 14.6765 36.7822 14.2837 37.3873C13.4912 38.6119 13.6746 40.7834 14.0344 42.5159C15.4456 40.2304 17.9219 36.9103 20.4853 36.991C20.8992 37.0052 21.2731 37.1856 21.5365 37.5012C21.7999 37.8145 21.9293 38.2203 21.9763 38.7234C23.7072 37.5677 26.2332 36.4237 31.2188 35.9159C25.8144 13.821 35.974 1.38284 36.435 0.83464C36.4444 0.82514 36.4538 0.8204 36.4608 0.8109C36.4891 0.78004 36.5173 0.75394 36.5479 0.72784C36.5667 0.70884 36.5855 0.69224 36.6067 0.678C36.6419 0.65426 36.6772 0.63528 36.7148 0.61392C36.7337 0.60204 36.7525 0.59018 36.7736 0.5807C36.8183 0.5617 36.863 0.54746 36.91 0.5356C36.9265 0.53322 36.9429 0.5261 36.9594 0.52136C37.0229 0.50712 37.0888 0.5 37.157 0.5L37.2957 0.50474C37.5732 0.50474 37.8342 0.62578 38.013 0.83938C38.4739 1.38496 48.584 13.7596 43.2761 35.7475C57.1558 36.5685 58.8537 42.1575 58.9196 42.402C58.9219 42.4115 58.9219 42.4233 58.9243 42.4328C58.929 42.4637 58.9337 42.4945 58.9384 42.5254C58.9431 42.5586 58.9478 42.5918 58.9478 42.6251C58.9478 42.6346 58.9501 42.644 58.9501 42.6535C58.9501 42.6725 58.9478 42.6891 58.9454 42.7081C58.9431 42.7413 58.9407 42.7769 58.9337 42.8102C58.929 42.8386 58.9219 42.8671 58.9149 42.8956C58.9055 42.9265 58.8984 42.9573 58.8866 42.9858ZM38.0971 38.6712L40.5289 38.6712C45.8839 20.9981 40.8463 9.08418 38.0971 4.35428L38.0971 38.6712ZM36.2158 4.60338L36.2158 38.6712L33.9228 38.6712C28.6714 21.342 33.4454 9.50388 36.2158 4.60338ZM55.7165 44.0086C55.7612 43.9564 55.8435 43.6882 55.8929 43.5292L55.8921 43.5293C56.0027 43.1733 56.1908 42.5895 56.6541 42.1789C55.6125 40.8499 52.3272 38.1206 42.7909 37.6246C42.5839 38.377 42.3605 39.1388 42.1159 39.9124C41.9912 40.3064 41.6291 40.5745 41.2199 40.5745L33.229 40.5745C32.8198 40.5745 32.4576 40.3064 32.333 39.9124C32.1072 39.191 31.9003 38.4813 31.7051 37.7813C25.6586 38.3556 23.4951 39.8863 21.8418 41.1773C21.823 41.3197 21.8066 41.4598 21.7854 41.6116C21.6937 42.3046 21.5526 43.3726 21.5808 43.9422C21.7525 43.8401 21.9265 43.6313 22.2087 43.2468C22.6908 42.5966 23.3493 41.7042 24.6804 41.7042C26.0092 41.7042 26.6676 42.5966 27.1497 43.2468C27.6013 43.8591 27.773 44.0252 28.1116 44.0252C28.4503 44.0252 28.6196 43.8591 29.0735 43.2468C29.5556 42.5966 30.2141 41.7042 31.5452 41.7042C32.8739 41.7042 33.5324 42.5966 34.0145 43.2468C34.4684 43.8591 34.6401 44.0252 34.9764 44.0252C35.315 44.0252 35.4844 43.8591 35.9383 43.2468C36.418 42.5966 37.0765 41.7042 38.4076 41.7042C39.7364 41.7042 40.3948 42.5966 40.8769 43.2468C41.3308 43.8615 41.5025 44.0276 41.8412 44.0276C42.1798 44.0276 42.3492 43.8615 42.803 43.2492C43.2851 42.599 43.9437 41.7066 45.2747 41.7066C46.6035 41.7066 47.2619 42.599 47.744 43.2492C48.1956 43.8615 48.3673 44.0276 48.7059 44.0276C49.0446 44.0276 49.2163 43.8615 49.6702 43.2468C50.1499 42.5966 50.8108 41.7042 52.1395 41.7042C53.4706 41.7042 54.1291 42.5966 54.6112 43.2468C55.0651 43.8591 55.2367 44.0252 55.573 44.0252C55.6789 44.0252 55.7165 44.0086 55.7165 44.0086Z" fill-rule="evenodd" stroke="rgb(34,37,50)" stroke-width="1.000000" />
		<path id="Shape" d="M6.57739 30.2604C6.45745 30.1157 5.36627 28.8555 3.96935 28.8555C3.32264 28.8555 2.39839 29.1236 1.67172 30.3981L0.860352 31.8221L7.88015 31.8221L6.57739 30.2604Z" fill="rgb(255,255,255)" fill-rule="nonzero" />
		<path id="Shape" d="M3.96935 28.8555C3.32264 28.8555 2.39839 29.1236 1.67172 30.3981L0.860352 31.8221L7.88015 31.8221L6.57739 30.2604C6.45745 30.1157 5.36627 28.8555 3.96935 28.8555Z" fill-rule="nonzero" stroke="rgb(34,37,50)" stroke-width="1.000000" />
		<path id="Shape" d="M4.7529 33.6992L5.71948 33.8012L5.59724 34.7742C5.24208 37.4038 2.49528 40.1781 2.3777 40.2968L1.1054 41.5688L0.790281 39.7889C0.416341 37.6957 0.682081 36.0866 1.5781 35.0068C2.83156 33.4951 4.7529 33.6992 4.7529 33.6992ZM3.0244 36.2243C2.85742 36.4237 2.73278 36.6776 2.64576 36.9766L2.64576 36.9767C2.84566 36.6753 3.0385 36.3596 3.20312 36.0416C3.14198 36.0962 3.08084 36.1555 3.0244 36.2243Z" fill="rgb(255,255,255)" fill-rule="evenodd" />
		<path id="Shape" d="M4.7529 33.6992L5.71948 33.8012L5.59724 34.7742C5.24208 37.4038 2.49528 40.1781 2.3777 40.2968L1.1054 41.5688L0.790281 39.7889C0.416341 37.6957 0.682081 36.0866 1.5781 35.0068C2.83156 33.4951 4.7529 33.6992 4.7529 33.6992ZM3.0244 36.2243C2.85742 36.4237 2.73278 36.6776 2.64576 36.9766L2.64576 36.9767C2.84566 36.6753 3.0385 36.3596 3.20312 36.0416C3.14198 36.0962 3.08084 36.1555 3.0244 36.2243Z" fill-rule="evenodd" stroke="rgb(34,37,50)" stroke-width="1.000000" />
		<path id="Shape" d="M11.9956 28.416C11.9956 29.408 11.1937 30.2149 10.2107 30.2149C9.22768 30.2149 8.4281 29.408 8.4281 28.416C8.4281 27.4239 9.22768 26.6171 10.2107 26.6171C11.196 26.6171 11.9956 27.4239 11.9956 28.416ZM10.3095 28.4159C10.3095 28.3614 10.2648 28.3163 10.2107 28.3163C10.1566 28.3163 10.1143 28.3614 10.1143 28.4159C10.1143 28.5251 10.3095 28.5251 10.3095 28.4159Z" fill="rgb(255,255,255)" fill-rule="evenodd" />
		<path id="Shape" d="M11.9956 28.416C11.9956 29.408 11.1937 30.2149 10.2107 30.2149C9.22768 30.2149 8.4281 29.408 8.4281 28.416C8.4281 27.4239 9.22768 26.6171 10.2107 26.6171C11.196 26.6171 11.9956 27.4239 11.9956 28.416ZM10.3095 28.4159C10.3095 28.3614 10.2648 28.3163 10.2107 28.3163C10.1566 28.3163 10.1143 28.3614 10.1143 28.4159C10.1143 28.5251 10.3095 28.5251 10.3095 28.4159Z" fill-rule="evenodd" stroke="rgb(34,37,50)" stroke-width="1.000000" />
	</g>
</svg>
