<svg viewBox="0 0 39.8303 23.856" xmlns="http://www.w3.org/2000/svg" xmlns:xlink="http://www.w3.org/1999/xlink" width="39.830261" height="23.855957" fill="none" customFrame="#000000">
	<g id="Surf">
		<path id="Shape" d="M26.2713 4.34212C26.3594 4.26234 26.4475 4.18421 26.5339 4.10609C26.7085 3.9515 26.878 3.79358 27.0442 3.63732C27.2055 3.4711 27.3966 3.36139 27.5645 3.2201C27.7374 3.08546 27.9036 2.94583 28.0732 2.82116C28.4239 2.59676 28.7497 2.34908 29.0805 2.15959C29.4113 1.97508 29.7188 1.77229 30.0247 1.63431C30.1759 1.55619 30.3205 1.48138 30.4585 1.40991C30.6014 1.34675 30.7377 1.28524 30.8674 1.22873C31.3877 0.987704 31.8182 0.841427 32.1141 0.733368C32.4116 0.636959 32.5712 0.587091 32.5712 0.587091L32.5861 0.582105C32.6393 0.565482 32.6842 0.522262 32.7025 0.465747C32.7324 0.370998 32.6792 0.269603 32.5861 0.239683C32.5861 0.239683 32.4066 0.183169 32.0775 0.123326C31.9129 0.0967303 31.7052 0.0568367 31.4641 0.041875C31.2215 0.0219281 30.9389 -0.00799313 30.6247 0.00198134C30.4668 0.00364347 30.2989 0.000319213 30.1244 0.0102928C29.9498 0.0252528 29.767 0.041875 29.5775 0.0601609C29.1918 0.0867567 28.7879 0.174855 28.3474 0.264616C28.123 0.301185 27.9053 0.370999 27.6776 0.440812C27.4482 0.512289 27.2121 0.585425 26.9711 0.660225C26.509 0.854706 26.0037 1.04753 25.5116 1.31014C25.269 1.44644 25.0196 1.58773 24.7686 1.73899C24.6423 1.81379 24.516 1.89025 24.388 1.96672C24.2683 2.05482 24.1469 2.14291 24.0256 2.23101C23.7846 2.41552 23.5386 2.60169 23.2876 2.79118C23.0282 2.97403 22.8221 3.21173 22.5844 3.42948C22.3534 3.65554 22.119 3.88327 21.883 4.11433C21.6719 4.36533 21.4608 4.62131 21.253 4.88561C21.0485 5.15157 20.8258 5.4142 20.6363 5.69676C20.4551 5.98432 20.2839 6.28186 20.1061 6.57939C19.9382 6.88358 19.7503 7.17446 19.6007 7.49693C19.4545 7.82605 19.3182 8.16182 19.1802 8.49927C19.0422 8.83504 18.9043 9.17412 18.7763 9.51488C18.6882 9.83071 18.5984 10.1499 18.5087 10.469C18.4189 10.7882 18.3291 11.109 18.2394 11.4298L18.0881 11.9584L17.9701 12.3955C17.9285 12.5418 17.8953 12.6897 17.8488 12.8343L17.6908 13.2582L17.5329 13.6854C17.4781 13.8267 17.4083 13.9597 17.3468 14.0993C16.8414 15.2013 16.1732 16.2286 15.372 17.1362C14.5692 18.0421 13.6566 18.8449 12.6792 19.5165C11.7035 20.193 10.6712 20.7366 9.65727 21.1937C8.63999 21.6475 7.63599 21.9999 6.69016 22.2758C4.79689 22.8327 3.14795 23.0887 1.99442 23.2383C0.835824 23.3829 0.17093 23.3929 0.17093 23.3929C0.0861558 23.3945 0.0130196 23.4577 0.0013813 23.5441C-0.010254 23.6389 0.0562366 23.727 0.152645 23.7386L0.155969 23.7386C0.155969 23.7386 0.835842 23.825 2.02597 23.85C2.62103 23.8633 3.3458 23.8566 4.17857 23.8051C5.00967 23.7536 5.95052 23.6704 6.96946 23.4992C9.00069 23.1568 11.3912 22.5368 13.7448 21.2569C14.9183 20.6203 16.0819 19.8207 17.1191 18.8234C18.1597 17.8343 19.0822 16.6641 19.8136 15.3792C19.905 15.218 20.0047 15.0617 20.0895 14.8972L20.3339 14.4018C20.4984 14.071 20.658 13.7369 20.791 13.3961L21.0004 12.8858L21.0519 12.7578L21.0785 12.6947L21.0852 12.6781C21.1068 12.6132 21.0619 12.7479 21.0686 12.7296L21.0802 12.7013L21.1783 12.4703C21.3113 12.1644 21.4426 11.8586 21.5739 11.5544C21.7052 11.2502 21.8365 10.9477 21.9678 10.6452C22.1158 10.3925 22.2521 10.1398 22.3867 9.88887C22.5214 9.63787 22.6577 9.39019 22.779 9.13755C22.917 8.88988 23.0815 8.65053 23.2262 8.40785C23.3708 8.1635 23.5154 7.92249 23.65 7.67814C23.7996 7.44543 23.9642 7.22934 24.1138 7.00495C24.27 6.78388 24.4096 6.55449 24.5609 6.33674C24.7255 6.13229 24.8867 5.92949 25.0463 5.73002C25.1261 5.62862 25.2042 5.52889 25.284 5.42915C25.3604 5.32609 25.4386 5.22636 25.5267 5.14159C25.6979 4.9604 25.8658 4.78254 26.032 4.60635C26.1101 4.51992 26.1916 4.43016 26.2713 4.34206L26.2713 4.34212Z" fill="rgb(74,246,205)" fill-rule="nonzero" />
		<path id="Shape" d="M38.7431 23.0391C39.3798 23.3234 39.7505 23.4613 39.7505 23.4613L39.7505 23.4613C39.8137 23.4846 39.8469 23.5544 39.822 23.6142C39.8004 23.6691 39.7422 23.7007 39.684 23.6907C39.684 23.6907 39.2868 23.6142 38.6036 23.4397C37.9187 23.2685 36.953 22.9743 35.8127 22.5471C35.5301 22.4357 35.2326 22.3243 34.9284 22.198C34.6259 22.065 34.3134 21.9304 33.9926 21.7891C33.6767 21.6328 33.3509 21.4733 33.0201 21.3087C32.696 21.1275 32.3652 20.9414 32.0278 20.7519C31.6986 20.5424 31.3662 20.3297 31.0271 20.1152C30.698 19.8825 30.3755 19.6315 30.0431 19.3822C29.7289 19.1079 29.4131 18.8286 29.0956 18.5511C28.803 18.2419 28.5022 17.9344 28.2113 17.6136L27.8074 17.0966L27.6062 16.8373L27.5032 16.7077L27.4782 16.6761L27.4649 16.6595C27.4633 16.6566 27.4624 16.6551 27.4621 16.6544C27.4639 16.6576 27.4769 16.6809 27.4317 16.6046L27.4267 16.5963L27.3851 16.5331L27.0594 16.0328C26.9513 15.8583 26.8399 15.7269 26.7352 15.4975C26.5341 15.0803 26.2864 14.6598 26.1717 14.2276C26.1019 14.0132 26.0271 13.8004 25.9723 13.5827C25.9357 13.3566 25.9008 13.1322 25.8642 12.9095C25.8526 12.7964 25.8326 12.6867 25.826 12.5737L25.8293 12.2313C25.8393 12.0036 25.8326 11.7792 25.8675 11.5564C25.9041 11.332 25.954 11.1126 25.9989 10.8965C26.0371 10.6804 26.1451 10.4743 26.2149 10.2715L26.3346 9.97227C26.3778 9.87587 26.441 9.78445 26.4925 9.69301C26.6056 9.51183 26.7036 9.32899 26.8266 9.16609C27.0943 8.85195 27.3453 8.55107 27.6561 8.32999C27.9337 8.07901 28.2695 7.93107 28.5587 7.76983C28.7116 7.70167 28.8695 7.65513 29.0175 7.60361C29.1654 7.55373 29.305 7.50221 29.4546 7.48725C30.0264 7.37255 30.5317 7.40413 30.919 7.48227C31.1152 7.52383 31.2831 7.57037 31.426 7.61191C31.5673 7.67343 31.6837 7.72661 31.7751 7.77315C31.9579 7.86459 32.0493 7.91611 32.0493 7.91611C32.1092 7.95101 32.1291 8.02747 32.0942 8.08731C32.0743 8.12223 32.041 8.14383 32.0045 8.14883L31.9878 8.15215C31.9878 8.15215 31.8864 8.16711 31.6969 8.19537C31.6055 8.21199 31.4942 8.22361 31.3678 8.23857C31.2415 8.27349 31.0969 8.32003 30.944 8.35659C30.7894 8.38153 30.6281 8.47793 30.4603 8.54609C30.2874 8.59929 30.1262 8.72893 29.9516 8.82535C29.7787 8.92839 29.6225 9.08299 29.4563 9.21431C29.3133 9.38551 29.1421 9.52347 29.0241 9.72627C28.7481 10.087 28.5586 10.5391 28.4523 11.0295C28.4449 11.0759 28.4336 11.1207 28.4222 11.1655C28.4026 11.2427 28.383 11.3199 28.3841 11.4051C28.3741 11.5364 28.3675 11.6694 28.3492 11.8007C28.3428 11.8741 28.347 11.9509 28.3512 12.0283C28.3546 12.0912 28.3581 12.1544 28.3558 12.2163C28.3558 12.2337 28.3559 12.2512 28.356 12.2686C28.3564 12.3211 28.3567 12.3738 28.3542 12.4274C28.3575 12.4989 28.3725 12.572 28.3824 12.6452C28.3974 12.7931 28.4107 12.9427 28.4257 13.0923C28.4622 13.2436 28.4955 13.3981 28.5254 13.5544C28.5719 13.8802 28.6866 14.1578 28.7664 14.4719C28.7897 14.6149 28.8994 14.8144 28.9742 14.9906L29.2202 15.5341L29.2501 15.6022L29.2534 15.6072L29.2568 15.6139L29.3249 15.7302L29.4646 15.9596L29.7455 16.4251C29.9699 16.7176 30.1926 17.0102 30.4153 17.3011C30.6696 17.5754 30.9223 17.848 31.1733 18.1189C31.4459 18.3732 31.7169 18.6259 31.9862 18.8752C32.2704 19.1112 32.5513 19.3456 32.8289 19.575C33.1198 19.7911 33.4074 20.0038 33.6883 20.2116C33.9792 20.4094 34.2651 20.6023 34.5427 20.7884C34.8285 20.9663 35.1061 21.1392 35.3754 21.3071C35.648 21.47 35.9173 21.6179 36.1733 21.7658C36.6903 22.0518 37.174 22.3011 37.6078 22.5105C38.0434 22.7216 38.4256 22.8978 38.7431 23.0391ZM29.2334 15.5726L29.2317 15.5707L29.24 15.5856L29.2434 15.589C29.24 15.584 29.2351 15.5757 29.2334 15.5723L29.2334 15.5726ZM29.2334 15.5726L29.2338 15.5734L29.2334 15.5726Z" fill="rgb(74,246,205)" fill-rule="evenodd" />
		<path id="Shape" d="M31.401 2.4405C30.6198 2.60174 30.1261 2.80619 30.1261 2.80619C30.0945 2.81949 30.0696 2.85107 30.0696 2.88764C30.0679 2.93585 30.1078 2.97574 30.156 2.97574C30.1577 2.97574 30.6729 2.97907 31.4326 3.06716C31.8116 3.10373 32.2471 3.18019 32.7059 3.25998C33.163 3.36304 33.6467 3.45613 34.1105 3.6024C34.2268 3.6423 34.3432 3.67388 34.4562 3.7171C34.5676 3.76696 34.6773 3.81517 34.787 3.86337C35.0064 3.95812 35.2125 4.06284 35.4203 4.13432C35.6314 4.19748 35.8359 4.25233 36.037 4.2889C36.2431 4.32215 36.4393 4.35373 36.6204 4.38199C36.805 4.41025 36.9845 4.42022 37.1474 4.42853C37.3053 4.44516 37.4516 4.45513 37.5762 4.45513C37.8272 4.46012 37.9935 4.44183 37.9935 4.44183L38.0001 4.44017C38.0084 4.43851 38.0151 4.43684 38.0234 4.43518C38.0799 4.41524 38.1082 4.35207 38.0882 4.29556C38.0882 4.29556 38.0333 4.14429 37.8987 3.92155C37.8322 3.80686 37.7425 3.67887 37.6311 3.53591C37.5181 3.39795 37.3768 3.26165 37.2155 3.12036C37.1357 3.04722 37.0476 2.9774 36.9562 2.90759C36.8598 2.84775 36.7634 2.7796 36.657 2.72142C36.4509 2.59343 36.2199 2.47874 35.9672 2.41058C35.7162 2.33412 35.4469 2.29423 35.171 2.28259C34.8967 2.25766 34.6208 2.24602 34.3465 2.23272C34.0739 2.20779 33.8013 2.21111 33.5354 2.20613C33.2694 2.19948 33.0068 2.22607 32.7558 2.23937C32.5031 2.26929 32.2638 2.28259 32.036 2.32415C31.81 2.36238 31.5972 2.39895 31.4011 2.4405L31.401 2.4405Z" fill="rgb(74,246,205)" fill-rule="nonzero" />
		<path id="Shape" d="M37.0227 8.59065C37.189 8.66545 37.3186 8.74856 37.4483 8.8084C37.686 8.94138 37.8522 9.02117 37.8522 9.02117L37.8622 9.02615C37.8755 9.0328 37.8904 9.03613 37.907 9.03613C37.9602 9.03446 38.0035 8.98958 38.0035 8.93473C38.0035 8.93473 38.0018 8.88985 38.0001 8.80674C37.9951 8.72363 37.9902 8.59896 37.9569 8.4477C37.9203 8.29976 37.8755 8.11193 37.784 7.9191C37.7026 7.71631 37.5796 7.50853 37.4267 7.29408C37.3485 7.18936 37.2604 7.08298 37.169 6.97659C37.0709 6.87852 36.9729 6.76882 36.8615 6.67241C36.6421 6.4746 36.3894 6.29176 36.1085 6.14713C35.8276 6.00418 35.5184 5.89946 35.2043 5.82133C34.8901 5.73656 34.5726 5.67007 34.2601 5.59693C33.6351 5.45232 33.0101 5.35093 32.4233 5.30438C31.8382 5.24953 31.2913 5.23956 30.8243 5.24454C29.8918 5.25618 29.2784 5.34926 29.2784 5.34926C29.2418 5.35425 29.2119 5.38251 29.2036 5.41908C29.1953 5.46728 29.2252 5.51382 29.2734 5.52213C29.2734 5.52213 29.8735 5.63683 30.7495 5.86788C31.1866 5.98091 31.6903 6.12885 32.2189 6.30337C32.4832 6.38814 32.7508 6.4912 33.0234 6.58761C33.2927 6.68735 33.5636 6.79705 33.8263 6.91507C34.0889 7.03475 34.3432 7.17105 34.5776 7.32065C34.8153 7.46859 35.0363 7.61985 35.2591 7.74286C35.4818 7.86421 35.6963 7.97059 35.9107 8.06367C36.1218 8.16175 36.3213 8.25483 36.5057 8.34127C36.6952 8.43103 36.8698 8.5158 37.0227 8.5906L37.0227 8.59065Z" fill="rgb(74,246,205)" fill-rule="nonzero" />
		<path id="Shape" d="M36.0951 10.677C36.0319 10.5457 35.9421 10.4227 35.8424 10.2914C35.7443 10.1584 35.618 10.052 35.4784 9.95065C35.3387 9.85091 35.1692 9.79107 35.0013 9.72625C34.8318 9.66973 34.6605 9.61488 34.496 9.55337C34.1635 9.442 33.8327 9.33562 33.5153 9.27911C33.2011 9.20929 32.9019 9.17771 32.6492 9.15111C32.1439 9.09959 31.8015 9.12119 31.8015 9.12119C31.7765 9.12286 31.7533 9.13782 31.74 9.16275C31.7233 9.19932 31.7383 9.24254 31.7749 9.25916C31.7749 9.25916 32.0757 9.40045 32.5079 9.62651C32.7224 9.74453 32.9667 9.88582 33.2227 10.0404C33.3474 10.1202 33.477 10.2016 33.6067 10.2831C33.738 10.3629 33.8627 10.456 33.989 10.5424C34.1103 10.6355 34.2267 10.7369 34.3331 10.8416C34.4328 10.953 34.5409 11.0494 34.6439 11.1325C34.7453 11.2156 34.8683 11.2705 34.978 11.327C35.0861 11.3852 35.2041 11.4267 35.3121 11.4699C35.4152 11.5148 35.5216 11.5514 35.6246 11.5813C35.7277 11.6112 35.8091 11.6461 35.8906 11.6677C36.0502 11.7159 36.1665 11.7359 36.1665 11.7359L36.1715 11.7375C36.223 11.7475 36.2729 11.7126 36.2829 11.6611C36.2829 11.6611 36.3028 11.5514 36.2912 11.3702C36.2845 11.2804 36.2746 11.1657 36.2413 11.051C36.2064 10.9364 36.1599 10.81 36.0951 10.677L36.0951 10.677Z" fill="rgb(74,246,205)" fill-rule="nonzero" />
	</g>
</svg>
