<svg viewBox="0 0 50.1002 32.0605" xmlns="http://www.w3.org/2000/svg" xmlns:xlink="http://www.w3.org/1999/xlink" width="50.100189" height="32.060547" fill="none" customFrame="#000000">
	<g id="Travel">
		<path id="Shape" d="M48.8006 21.3366L48.8006 24.0831L48.8002 24.0832C49.3705 24.1992 49.8002 24.6998 49.8002 25.2951L49.8002 26.2827C49.8002 26.8819 49.3705 27.3805 48.8002 27.4965L48.8002 27.5216L42.2357 27.5216C41.8724 29.7617 39.9135 31.48 37.5502 31.48C35.1869 31.48 33.2279 29.7617 32.8666 27.5216L15.4856 27.5216C15.1223 29.7617 13.1633 31.48 10.8 31.48C8.43672 31.48 6.4758 29.7598 6.11448 27.5216L2.30002 27.5216L1.55198 27.5236C0.860578 27.5236 0.300018 26.9669 0.300018 26.2847L0.300018 25.297C0.300018 24.6128 0.862518 24.0581 1.55198 24.0581L2.30002 24.0581L2.30002 12.9273C2.30002 9.51589 5.10478 6.7404 8.55202 6.7404L14.3215 6.73654L14.3215 4.76316C8.23602 4.18915 3.07958 3.11644 1.51902 1.57214C1.2866 1.34411 1.23192 0.992325 1.38426 0.704325C1.5366 0.418285 1.85694 0.259785 2.18116 0.317785C7.15766 1.1991 14.8962 1.317 21.8062 1.317C23.2749 1.317 24.7183 1.31314 26.105 1.30734C27.3921 1.30348 28.6304 1.29768 29.8003 1.29768L36.2378 1.2996L36.2398 1.2996C40.5973 1.2996 43.2808 1.27062 46.7613 1.10246C47.105 1.0889 47.4234 1.30926 47.5191 1.63976C47.6148 1.97028 47.4683 2.32398 47.1655 2.49214C46.6636 2.77046 46.0386 3.02944 45.2983 3.2691L45.2983 4.7709C45.2983 5.43966 44.9389 6.01754 44.3354 6.31906C44.0796 6.44662 43.8101 6.5104 43.5425 6.5104C43.1792 6.5104 42.8179 6.39442 42.5054 6.16444L40.0855 4.38822C37.0035 4.83278 33.1872 5.11496 28.8005 5.21546L28.8005 6.74234L34.0485 6.74042C37.3925 6.74042 40.4764 7.8479 42.953 9.70917L43.1581 9.86767C45.2303 11.4814 46.8553 13.6326 47.8182 16.1085C47.8202 16.1123 47.8221 16.1162 47.8241 16.1201L47.8378 16.1529C47.8631 16.2244 47.8924 16.2921 47.9178 16.3617L48.2167 17.129L48.1737 17.129C48.5799 18.4626 48.8006 19.8755 48.8006 21.3366ZM26.1114 2.79366C24.7227 2.79752 23.2793 2.80332 21.8086 2.80332L21.8091 2.80328C17.3696 2.80328 12.5882 2.75302 8.3871 2.48438C12.4221 3.23818 18.2251 3.77162 25.0511 3.77162C31.3241 3.77162 36.8107 3.4083 40.7931 2.76852C39.4356 2.784 37.9688 2.78978 36.2423 2.78978L36.2403 2.78978L29.8008 2.784C28.6329 2.784 27.3965 2.78786 26.1114 2.79366ZM43.8007 4.7709C43.8007 4.87334 43.7557 4.9468 43.662 4.99318C43.5682 5.03956 43.4842 5.03184 43.4003 4.96998L42.1425 4.04804C42.7323 3.93594 43.2851 3.8161 43.8007 3.69048L43.8007 4.7709ZM15.8221 4.89654C18.8319 5.13426 22.0076 5.25604 25.0506 5.25604C25.8143 5.25604 26.5643 5.25024 27.3006 5.24056L27.3006 6.74038L15.8221 6.74038L15.8221 4.89654ZM37.5506 22.0792C39.9139 22.0792 41.8749 23.7974 42.2362 26.0375L48.3006 26.0375L48.3006 25.5427L43.8006 25.5427L43.8006 24.0583L47.3006 24.0583L47.3006 21.3389C47.3006 19.8661 47.0506 18.4533 46.5975 17.1312L35.0505 17.1312C34.0856 17.1312 33.3005 16.3543 33.3005 15.3995L33.3005 11.4411C33.3005 10.4863 34.0856 9.70938 35.0505 9.70938L40.162 9.70938C38.3317 8.76423 36.2516 8.225 34.0485 8.225L8.5525 8.225C5.9314 8.225 3.80054 10.3356 3.80054 12.9275L3.80054 15.6469L11.3355 15.6469L11.3355 17.1312L3.80054 17.1312L3.80054 24.0583L4.80054 24.0583L4.80054 25.5427L1.80054 25.5427L1.80054 26.0375L6.115 26.0375C6.4783 23.7974 8.43724 22.0792 10.8005 22.0792C13.1638 22.0792 15.1248 23.7974 15.4861 26.0375L32.8651 26.0375C33.2284 23.7974 35.1873 22.0792 37.5506 22.0792ZM35.0508 15.6464L45.9825 15.6464C45.1427 13.9321 43.9317 12.4109 42.4298 11.1933L35.0508 11.1933C34.916 11.1933 34.8008 11.3073 34.8008 11.4407L34.8008 15.399C34.8008 15.5324 34.916 15.6464 35.0508 15.6464ZM7.55064 26.7797C7.55064 28.554 9.0077 29.9958 10.8006 29.9958C12.5936 29.9958 14.0506 28.554 14.0506 26.7797C14.0506 25.0054 12.5936 23.5635 10.8006 23.5635C9.0077 23.5635 7.55064 25.0054 7.55064 26.7797ZM37.5506 29.9958C35.7577 29.9958 34.3006 28.554 34.3006 26.7797C34.3006 25.0054 35.7577 23.5635 37.5506 23.5635C39.3436 23.5635 40.8006 25.0054 40.8006 26.7797C40.8006 28.554 39.3436 29.9958 37.5506 29.9958Z" fill="rgb(255,255,255)" fill-rule="evenodd" />
		<path id="Shape" d="M48.8006 21.3366L48.8006 24.0831L48.8002 24.0832C49.3705 24.1992 49.8002 24.6998 49.8002 25.2951L49.8002 26.2827C49.8002 26.8819 49.3705 27.3805 48.8002 27.4965L48.8002 27.5216L42.2357 27.5216C41.8724 29.7617 39.9135 31.48 37.5502 31.48C35.1869 31.48 33.2279 29.7617 32.8666 27.5216L15.4856 27.5216C15.1223 29.7617 13.1633 31.48 10.8 31.48C8.43672 31.48 6.4758 29.7598 6.11448 27.5216L2.30002 27.5216L1.55198 27.5236C0.860578 27.5236 0.300018 26.9669 0.300018 26.2847L0.300018 25.297C0.300018 24.6128 0.862518 24.0581 1.55198 24.0581L2.30002 24.0581L2.30002 12.9273C2.30002 9.51589 5.10478 6.7404 8.55202 6.7404L14.3215 6.73654L14.3215 4.76316C8.23602 4.18915 3.07958 3.11644 1.51902 1.57214C1.2866 1.34411 1.23192 0.992325 1.38426 0.704325C1.5366 0.418285 1.85694 0.259785 2.18116 0.317785C7.15766 1.1991 14.8962 1.317 21.8062 1.317C23.2749 1.317 24.7183 1.31314 26.105 1.30734C27.3921 1.30348 28.6304 1.29768 29.8003 1.29768L36.2378 1.2996L36.2398 1.2996C40.5973 1.2996 43.2808 1.27062 46.7613 1.10246C47.105 1.0889 47.4234 1.30926 47.5191 1.63976C47.6148 1.97028 47.4683 2.32398 47.1655 2.49214C46.6636 2.77046 46.0386 3.02944 45.2983 3.2691L45.2983 4.7709C45.2983 5.43966 44.9389 6.01754 44.3354 6.31906C44.0796 6.44662 43.8101 6.5104 43.5425 6.5104C43.1792 6.5104 42.8179 6.39442 42.5054 6.16444L40.0855 4.38822C37.0035 4.83278 33.1872 5.11496 28.8005 5.21546L28.8005 6.74234L34.0485 6.74042C37.3925 6.74042 40.4764 7.8479 42.953 9.70917L43.1581 9.86767C45.2303 11.4814 46.8553 13.6326 47.8182 16.1085C47.8202 16.1123 47.8221 16.1162 47.8241 16.1201L47.8378 16.1529C47.8631 16.2244 47.8924 16.2921 47.9178 16.3617L48.2167 17.129L48.1737 17.129C48.5799 18.4626 48.8006 19.8755 48.8006 21.3366ZM26.1114 2.79366C24.7227 2.79752 23.2793 2.80332 21.8086 2.80332L21.8091 2.80328C17.3696 2.80328 12.5882 2.75302 8.3871 2.48438C12.4221 3.23818 18.2251 3.77162 25.0511 3.77162C31.3241 3.77162 36.8107 3.4083 40.7931 2.76852C39.4356 2.784 37.9688 2.78978 36.2423 2.78978L36.2403 2.78978L29.8008 2.784C28.6329 2.784 27.3965 2.78786 26.1114 2.79366ZM43.8007 4.7709C43.8007 4.87334 43.7557 4.9468 43.662 4.99318C43.5682 5.03956 43.4842 5.03184 43.4003 4.96998L42.1425 4.04804C42.7323 3.93594 43.2851 3.8161 43.8007 3.69048L43.8007 4.7709ZM15.8221 4.89654C18.8319 5.13426 22.0076 5.25604 25.0506 5.25604C25.8143 5.25604 26.5643 5.25024 27.3006 5.24056L27.3006 6.74038L15.8221 6.74038L15.8221 4.89654ZM37.5506 22.0792C39.9139 22.0792 41.8749 23.7974 42.2362 26.0375L48.3006 26.0375L48.3006 25.5427L43.8006 25.5427L43.8006 24.0583L47.3006 24.0583L47.3006 21.3389C47.3006 19.8661 47.0506 18.4533 46.5975 17.1312L35.0505 17.1312C34.0856 17.1312 33.3005 16.3543 33.3005 15.3995L33.3005 11.4411C33.3005 10.4863 34.0856 9.70938 35.0505 9.70938L40.162 9.70938C38.3317 8.76423 36.2516 8.225 34.0485 8.225L8.5525 8.225C5.9314 8.225 3.80054 10.3356 3.80054 12.9275L3.80054 15.6469L11.3355 15.6469L11.3355 17.1312L3.80054 17.1312L3.80054 24.0583L4.80054 24.0583L4.80054 25.5427L1.80054 25.5427L1.80054 26.0375L6.115 26.0375C6.4783 23.7974 8.43724 22.0792 10.8005 22.0792C13.1638 22.0792 15.1248 23.7974 15.4861 26.0375L32.8651 26.0375C33.2284 23.7974 35.1873 22.0792 37.5506 22.0792ZM35.0508 15.6464L45.9825 15.6464C45.1427 13.9321 43.9317 12.4109 42.4298 11.1933L35.0508 11.1933C34.916 11.1933 34.8008 11.3073 34.8008 11.4407L34.8008 15.399C34.8008 15.5324 34.916 15.6464 35.0508 15.6464ZM7.55064 26.7797C7.55064 28.554 9.0077 29.9958 10.8006 29.9958C12.5936 29.9958 14.0506 28.554 14.0506 26.7797C14.0506 25.0054 12.5936 23.5635 10.8006 23.5635C9.0077 23.5635 7.55064 25.0054 7.55064 26.7797ZM37.5506 29.9958C35.7577 29.9958 34.3006 28.554 34.3006 26.7797C34.3006 25.0054 35.7577 23.5635 37.5506 23.5635C39.3436 23.5635 40.8006 25.0054 40.8006 26.7797C40.8006 28.554 39.3436 29.9958 37.5506 29.9958Z" fill-rule="evenodd" stroke="rgb(34,37,50)" stroke-width="0.600000" />
		<path id="Shape" d="M22.8006 11.4408L22.8006 15.3991C22.8006 16.3539 22.0155 17.1309 21.0506 17.1309L16.0506 17.1309C15.0858 17.1309 14.3006 16.3539 14.3006 15.3991L14.3006 11.4408C14.3006 10.486 15.0858 9.70898 16.0506 9.70898L21.0506 9.70898C22.0155 9.70898 22.8006 10.486 22.8006 11.4408ZM15.8006 11.4408L15.8006 15.3991C15.8006 15.5344 15.9159 15.6465 16.0506 15.6465L21.0506 15.6465C21.1854 15.6465 21.3006 15.5324 21.3006 15.3991L21.3006 11.4408C21.3006 11.3074 21.1854 11.1934 21.0506 11.1934L16.0506 11.1934C15.9159 11.1934 15.8006 11.3074 15.8006 11.4408Z" fill="rgb(255,255,255)" fill-rule="evenodd" />
		<path id="Shape" d="M22.8006 11.4408L22.8006 15.3991C22.8006 16.3539 22.0155 17.1309 21.0506 17.1309L16.0506 17.1309C15.0858 17.1309 14.3006 16.3539 14.3006 15.3991L14.3006 11.4408C14.3006 10.486 15.0858 9.70898 16.0506 9.70898L21.0506 9.70898C22.0155 9.70898 22.8006 10.486 22.8006 11.4408ZM15.8006 11.4408L15.8006 15.3991C15.8006 15.5344 15.9159 15.6465 16.0506 15.6465L21.0506 15.6465C21.1854 15.6465 21.3006 15.5324 21.3006 15.3991L21.3006 11.4408C21.3006 11.3074 21.1854 11.1934 21.0506 11.1934L16.0506 11.1934C15.9159 11.1934 15.8006 11.3074 15.8006 11.4408Z" fill-rule="evenodd" stroke="rgb(34,37,50)" stroke-width="0.600000" />
		<path id="Shape" d="M25.5506 9.70898L30.5506 9.70898C31.5155 9.70898 32.3006 10.486 32.3006 11.4408L32.3006 15.3991C32.3006 16.3539 31.5155 17.1309 30.5506 17.1309L25.5506 17.1309C24.5858 17.1309 23.8006 16.3539 23.8006 15.3991L23.8006 11.4408C23.8006 10.486 24.5858 9.70898 25.5506 9.70898ZM30.5506 15.6465C30.6854 15.6465 30.8006 15.5324 30.8006 15.3991L30.8006 11.4408C30.8006 11.3074 30.6854 11.1934 30.5506 11.1934L25.5506 11.1934C25.4159 11.1934 25.3006 11.3074 25.3006 11.4408L25.3006 15.3991C25.3006 15.5324 25.4159 15.6465 25.5506 15.6465L30.5506 15.6465Z" fill="rgb(255,255,255)" fill-rule="evenodd" />
		<path id="Shape" d="M25.5506 9.70898L30.5506 9.70898C31.5155 9.70898 32.3006 10.486 32.3006 11.4408L32.3006 15.3991C32.3006 16.3539 31.5155 17.1309 30.5506 17.1309L25.5506 17.1309C24.5858 17.1309 23.8006 16.3539 23.8006 15.3991L23.8006 11.4408C23.8006 10.486 24.5858 9.70898 25.5506 9.70898ZM30.5506 15.6465C30.6854 15.6465 30.8006 15.5324 30.8006 15.3991L30.8006 11.4408C30.8006 11.3074 30.6854 11.1934 30.5506 11.1934L25.5506 11.1934C25.4159 11.1934 25.3006 11.3074 25.3006 11.4408L25.3006 15.3991C25.3006 15.5324 25.4159 15.6465 25.5506 15.6465L30.5506 15.6465Z" fill-rule="evenodd" stroke="rgb(34,37,50)" stroke-width="0.600000" />
		<path id="Shape" d="M35.5506 26.7793C35.5506 25.6873 36.4471 24.8002 37.5506 24.8002C38.6541 24.8002 39.5506 25.6893 39.5506 26.7793C39.5506 27.8714 38.6541 28.7585 37.5506 28.7585C36.4471 28.7585 35.5506 27.8714 35.5506 26.7793ZM37.0506 26.7793C37.0506 27.0519 37.2752 27.2741 37.5506 27.2741C37.826 27.2741 38.0506 27.0519 38.0506 26.7793C38.0506 26.5068 37.826 26.2846 37.5506 26.2846C37.2752 26.2846 37.0506 26.5068 37.0506 26.7793Z" fill="rgb(255,255,255)" fill-rule="evenodd" />
		<path id="Shape" d="M35.5506 26.7793C35.5506 25.6873 36.4471 24.8002 37.5506 24.8002C38.6541 24.8002 39.5506 25.6893 39.5506 26.7793C39.5506 27.8714 38.6541 28.7585 37.5506 28.7585C36.4471 28.7585 35.5506 27.8714 35.5506 26.7793ZM37.0506 26.7793C37.0506 27.0519 37.2752 27.2741 37.5506 27.2741C37.826 27.2741 38.0506 27.0519 38.0506 26.7793C38.0506 26.5068 37.826 26.2846 37.5506 26.2846C37.2752 26.2846 37.0506 26.5068 37.0506 26.7793Z" fill-rule="evenodd" stroke="rgb(34,37,50)" stroke-width="0.600000" />
		<path id="Shape" d="M8.80063 26.7793C8.80063 25.6873 9.69713 24.8002 10.8006 24.8002C11.9041 24.8002 12.8006 25.6893 12.8006 26.7793C12.8006 27.8714 11.9041 28.7585 10.8006 28.7585C9.69713 28.7585 8.80063 27.8694 8.80063 26.7793ZM10.3006 26.7793C10.3006 27.0519 10.5252 27.2741 10.8006 27.2741C11.076 27.2741 11.3006 27.0519 11.3006 26.7793C11.3006 26.5068 11.076 26.2846 10.8006 26.2846C10.5252 26.2846 10.3006 26.5068 10.3006 26.7793Z" fill="rgb(255,255,255)" fill-rule="evenodd" />
		<path id="Shape" d="M8.80063 26.7793C8.80063 25.6873 9.69713 24.8002 10.8006 24.8002C11.9041 24.8002 12.8006 25.6893 12.8006 26.7793C12.8006 27.8714 11.9041 28.7585 10.8006 28.7585C9.69713 28.7585 8.80063 27.8694 8.80063 26.7793ZM10.3006 26.7793C10.3006 27.0519 10.5252 27.2741 10.8006 27.2741C11.076 27.2741 11.3006 27.0519 11.3006 26.7793C11.3006 26.5068 11.076 26.2846 10.8006 26.2846C10.5252 26.2846 10.3006 26.5068 10.3006 26.7793Z" fill-rule="evenodd" stroke="rgb(34,37,50)" stroke-width="0.600000" />
		<path id="Shape" d="M16.3006 24.058L31.8006 24.058L31.8006 25.5424L16.3006 25.5424L16.3006 24.058Z" fill="rgb(255,255,255)" fill-rule="nonzero" />
		<path id="Shape" d="M31.8006 24.058L31.8006 25.5424L16.3006 25.5424L16.3006 24.058L31.8006 24.058Z" fill-rule="nonzero" stroke="rgb(34,37,50)" stroke-width="0.600000" />
	</g>
</svg>
