<svg viewBox="0 0 18.6583 24.3401" xmlns="http://www.w3.org/2000/svg" xmlns:xlink="http://www.w3.org/1999/xlink" width="18.658264" height="24.340088" fill="none" customFrame="#000000">
	<g id="Water">
		<path id="Shape" d="M5.07603 15.6877C3.58773 15.6877 2.37683 14.4768 2.37683 12.9885C2.37683 12.6721 2.63464 12.4143 2.95103 12.4143C3.26744 12.4143 3.52523 12.6721 3.52523 12.9885C3.52523 13.844 4.22248 14.5413 5.07798 14.5413C5.93348 14.5413 6.63073 13.844 6.63073 12.9885C6.63073 12.6721 6.88854 12.4143 7.20493 12.4143C7.52134 12.4143 7.77913 12.6721 7.77913 12.9885C7.77522 14.4768 6.56428 15.6877 5.07603 15.6877Z" fill="rgb(74,246,205)" fill-rule="nonzero" />
		<path id="Shape" d="M2.37683 12.9885C2.37683 12.6721 2.63464 12.4143 2.95103 12.4143C3.26744 12.4143 3.52523 12.6721 3.52523 12.9885C3.52523 13.844 4.22248 14.5413 5.07798 14.5413C5.93348 14.5413 6.63073 13.844 6.63073 12.9885C6.63073 12.6721 6.88854 12.4143 7.20493 12.4143C7.52134 12.4143 7.77913 12.6721 7.77913 12.9885C7.77522 14.4768 6.56428 15.6877 5.07603 15.6877C3.58773 15.6877 2.37683 14.4768 2.37683 12.9885Z" fill-rule="nonzero" stroke="rgb(74,246,205)" stroke-width="0.500000" />
		<path id="Shape" d="M0.823956 15.6877C0.507551 15.6877 0.249756 15.4299 0.249756 15.1135C0.249756 14.7971 0.507566 14.5393 0.823956 14.5393C1.67941 14.5393 2.37671 13.8421 2.37671 12.9866C2.37671 12.6701 2.63452 12.4124 2.95091 12.4124C3.26731 12.4124 3.52511 12.6702 3.52511 12.9866C3.52315 14.4768 2.31221 15.6877 0.823956 15.6877Z" opacity="0" fill="rgb(74,246,205)" fill-rule="nonzero" />
		<path id="Shape" d="M0.249756 15.1135C0.249756 14.7971 0.507566 14.5393 0.823956 14.5393C1.67941 14.5393 2.37671 13.8421 2.37671 12.9866C2.37671 12.6701 2.63452 12.4124 2.95091 12.4124C3.26731 12.4124 3.52511 12.6702 3.52511 12.9866C3.52315 14.4768 2.31221 15.6877 0.823956 15.6877C0.507551 15.6877 0.249756 15.4299 0.249756 15.1135Z" opacity="0" fill-rule="nonzero" stroke="rgb(74,246,205)" stroke-width="0.500000" />
		<path id="Shape" d="M9.32798 15.6877C7.83968 15.6877 6.62878 14.4768 6.62878 12.9885C6.62878 12.6721 6.8866 12.4143 7.20298 12.4143C7.51937 12.4143 7.77718 12.6721 7.77718 12.9885C7.77718 13.844 8.47443 14.5413 9.32993 14.5413C10.1854 14.5413 10.8827 13.844 10.8827 12.9885C10.8827 12.6721 11.1405 12.4143 11.4569 12.4143C11.7733 12.4143 12.0311 12.6721 12.0311 12.9885C12.0272 14.4768 10.8162 15.6877 9.32798 15.6877Z" fill="rgb(74,246,205)" fill-rule="nonzero" />
		<path id="Shape" d="M6.62878 12.9885C6.62878 12.6721 6.8866 12.4143 7.20298 12.4143C7.51937 12.4143 7.77718 12.6721 7.77718 12.9885C7.77718 13.844 8.47443 14.5413 9.32993 14.5413C10.1854 14.5413 10.8827 13.844 10.8827 12.9885C10.8827 12.6721 11.1405 12.4143 11.4569 12.4143C11.7733 12.4143 12.0311 12.6721 12.0311 12.9885C12.0272 14.4768 10.8162 15.6877 9.32798 15.6877C7.83968 15.6877 6.62878 14.4768 6.62878 12.9885Z" fill-rule="nonzero" stroke="rgb(74,246,205)" stroke-width="0.500000" />
		<path id="Shape" d="M13.5799 15.6877C12.0916 15.6877 10.8807 14.4768 10.8807 12.9885C10.8807 12.6721 11.1385 12.4143 11.4549 12.4143C11.7713 12.4143 12.0291 12.6721 12.0291 12.9885C12.0291 13.844 12.7264 14.5413 13.5819 14.5413C14.4373 14.5413 15.1346 13.844 15.1346 12.9885C15.1346 12.6721 15.3924 12.4143 15.7088 12.4143C16.0252 12.4143 16.283 12.6721 16.283 12.9885C16.2791 14.4768 15.0682 15.6877 13.5799 15.6877Z" fill="rgb(74,246,205)" fill-rule="nonzero" />
		<path id="Shape" d="M10.8807 12.9885C10.8807 12.6721 11.1385 12.4143 11.4549 12.4143C11.7713 12.4143 12.0291 12.6721 12.0291 12.9885C12.0291 13.844 12.7264 14.5413 13.5819 14.5413C14.4373 14.5413 15.1346 13.844 15.1346 12.9885C15.1346 12.6721 15.3924 12.4143 15.7088 12.4143C16.0252 12.4143 16.283 12.6721 16.283 12.9885C16.2791 14.4768 15.0682 15.6877 13.5799 15.6877C12.0916 15.6877 10.8807 14.4768 10.8807 12.9885Z" fill-rule="nonzero" stroke="rgb(74,246,205)" stroke-width="0.500000" />
		<path id="Shape" d="M17.832 15.6877C16.3437 15.6877 15.1328 14.4768 15.1328 12.9885C15.1328 12.6721 15.3906 12.4143 15.707 12.4143C16.0234 12.4143 16.2812 12.6721 16.2812 12.9885C16.2812 13.844 16.9785 14.5413 17.834 14.5413C18.1504 14.5413 18.4082 14.7991 18.4082 15.1155C18.4062 15.4299 18.1504 15.6877 17.832 15.6877Z" opacity="0" fill="rgb(74,246,205)" fill-rule="nonzero" />
		<path id="Shape" d="M15.1328 12.9885C15.1328 12.6721 15.3906 12.4143 15.707 12.4143C16.0234 12.4143 16.2812 12.6721 16.2812 12.9885C16.2812 13.844 16.9785 14.5413 17.834 14.5413C18.1504 14.5413 18.4082 14.7991 18.4082 15.1155C18.4062 15.4299 18.1504 15.6877 17.832 15.6877C16.3437 15.6877 15.1328 14.4768 15.1328 12.9885Z" opacity="0" fill-rule="nonzero" stroke="rgb(74,246,205)" stroke-width="0.500000" />
		<path id="Shape" d="M0.25 15.0121C0.25 20.0178 4.322 24.0901 9.328 24.0901L9.32826 24.0902C14.3341 24.0902 18.4063 20.0182 18.4083 15.0122C18.4083 8.18019 10.0647 0.738646 9.70926 0.424186C9.50026 0.238646 9.1858 0.232786 8.969 0.408566C8.6115 0.695566 0.25 7.53557 0.25 15.0121ZM9.31212 1.62129L9.31238 1.62107L9.31188 1.62107L9.31212 1.62129ZM9.31212 1.62129C7.69254 3.04159 1.39638 8.94539 1.39638 15.0116C1.39638 19.3846 4.95302 22.9411 9.32588 22.9411C13.6987 22.9411 17.2554 19.3844 17.2554 15.0116C17.2573 9.46885 10.918 3.13521 9.31212 1.62129Z" fill="rgb(74,246,205)" fill-rule="evenodd" />
		<path id="Shape" d="M0.25 15.0121C0.25 20.0178 4.322 24.0901 9.328 24.0901L9.32826 24.0902C14.3341 24.0902 18.4063 20.0182 18.4083 15.0122C18.4083 8.18019 10.0647 0.738646 9.70926 0.424186C9.50026 0.238646 9.1858 0.232786 8.969 0.408566C8.6115 0.695566 0.25 7.53557 0.25 15.0121ZM9.31212 1.62129L9.31238 1.62107L9.31188 1.62107L9.31212 1.62129ZM9.31212 1.62129C7.69254 3.04159 1.39638 8.94539 1.39638 15.0116C1.39638 19.3846 4.95302 22.9411 9.32588 22.9411C13.6987 22.9411 17.2554 19.3844 17.2554 15.0116C17.2573 9.46885 10.918 3.13521 9.31212 1.62129Z" fill-rule="evenodd" stroke="rgb(74,246,205)" stroke-width="0.500000" />
	</g>
</svg>
