<svg viewBox="0 0 26 23.8325" xmlns="http://www.w3.org/2000/svg" xmlns:xlink="http://www.w3.org/1999/xlink" width="26.000000" height="23.832520" fill="none" customFrame="#000000">
	<g id="Wind">
		<path id="Shape" d="M17.3337 8.66632L0 8.66632L0 10.8326L17.3337 10.8326C20.3206 10.8326 22.75 8.40224 22.75 5.41632C22.75 2.42944 20.3196 0 17.3337 0C14.3468 0 11.9174 2.4304 11.9174 5.41632L14.0837 5.41632C14.0837 3.62476 15.5421 2.16632 17.3337 2.16632C19.1252 2.16632 20.5837 3.62476 20.5837 5.41632C20.5837 7.20788 19.1252 8.66632 17.3337 8.66632Z" fill="rgb(74,246,205)" fill-rule="nonzero" />
		<path id="Shape" d="M20.5837 13L0 13L0 15.1663L20.5837 15.1663C22.3752 15.1663 23.8337 16.6248 23.8337 18.4163C23.8337 20.2079 22.3752 21.6663 20.5837 21.6663C18.7921 21.6663 17.3337 20.2079 17.3337 18.4163L15.1674 18.4163C15.1674 21.4032 17.5978 23.8326 20.5837 23.8326C23.5706 23.8326 26 21.4022 26 18.4163C26 15.4294 23.5696 13 20.5837 13Z" fill="rgb(74,246,205)" fill-rule="nonzero" />
	</g>
</svg>
